<svg height="512" viewBox="0 0 512 512" width="512" xmlns="http://www.w3.org/2000/svg"><path d="m328 488h-144l7.01-8.77a114.11 114.11 0 0 0 24.99-71.23h80a113.867 113.867 0 0 0 2.56 24 112.5 112.5 0 0 0 3.87 13.74 113.792 113.792 0 0 0 18.56 33.49z" fill="#dbdbdb"/><path d="m298.56 432h-85.12a113.867 113.867 0 0 0 2.56-24h80a113.867 113.867 0 0 0 2.56 24z" fill="#cbcbcb"/><path d="m24 368v-280a16 16 0 0 1 16-16h432a16 16 0 0 1 16 16v280z" fill="#41dfd0"/><g fill="#37c9c3"><path d="m440 200a24.039 24.039 0 0 0 -22.624 16h-65.376v16h65.376a24 24 0 1 0 22.624-32zm0 32a8 8 0 1 1 8-8 8.009 8.009 0 0 1 -8 8z"/><path d="m415.353 195.151 21.987-51.3a24.034 24.034 0 1 0 -14.409-7l-20.206 47.149h-50.725v16h56a8 8 0 0 0 7.353-4.849zm24.647-83.151a8 8 0 1 1 -8 8 8.009 8.009 0 0 1 8-8z"/><path d="m440 296a24.115 24.115 0 0 0 -2.961.189l-21.884-43.767a8 8 0 0 0 -7.155-4.422h-56v16h51.056l19.678 39.356a23.982 23.982 0 1 0 17.266-7.356zm0 32a8 8 0 1 1 8-8 8.009 8.009 0 0 1 -8 8z"/><path d="m72 200a24 24 0 1 0 22.624 32h65.376v-16h-65.376a24.039 24.039 0 0 0 -22.624-16zm0 32a8 8 0 1 1 8-8 8.009 8.009 0 0 1 -8 8z"/><path d="m89.069 136.852a24.024 24.024 0 1 0 -14.409 7l21.987 51.3a8 8 0 0 0 7.353 4.848h64v-16h-58.725zm-25.069-16.852a8 8 0 1 1 8 8 8.009 8.009 0 0 1 -8-8z"/><path d="m96.845 252.422-21.884 43.767a24.042 24.042 0 1 0 14.305 7.167l19.678-39.356h51.056v-16h-56a8 8 0 0 0 -7.155 4.422zm-24.845 75.578a8 8 0 1 1 8-8 8.009 8.009 0 0 1 -8 8z"/></g><path d="m364 232q0 4.02-.29 7.96a107.977 107.977 0 0 1 -51.71 84.41v43.63h-112v-43.63a108 108 0 0 1 -51.71-84.4q-.285-3.945-.29-7.97a108.123 108.123 0 0 1 60-96.76v88.76l24 32h48l24-32v-88.76a107.963 107.963 0 0 1 60 96.76z" fill="#cbcbcb"/><path d="m363.71 239.96a107.977 107.977 0 0 1 -51.71 84.41v51.63h-112v-51.63a108 108 0 0 1 -51.71-84.4 108.155 108.155 0 0 1 59.71-88.73v88.76l24 32h48l24-32v-88.76a108.012 108.012 0 0 1 59.71 88.72z" fill="#e4e4e2"/><path d="m280 112h-48l-24 32v32l24 32h48l24-32v-32zm-8.5 52a16.028 16.028 0 1 1 .5-4 16.012 16.012 0 0 1 -.5 4z" fill="#ea9d2d"/><path d="m280 120h-48l-24 32v24l24 32h48l24-32v-24zm-24 64a16.028 16.028 0 1 1 16-16 16 16 0 0 1 -16 16z" fill="#f3af3e"/><path d="m288 336a8 8 0 0 1 -8 8h-8v24h-16v-32a8 8 0 0 1 8-8h16a8 8 0 0 1 8 8z" fill="#dbdbdb"/><path d="m472 408h-432a16 16 0 0 1 -16-16v-24h464v24a16 16 0 0 1 -16 16z" fill="#ebebeb"/></svg>