<svg height="448pt" viewBox="0 -88 448 448" width="448pt" xmlns="http://www.w3.org/2000/svg"><path d="m216 104h-24v-56h-64v-24c0-13.253906-10.746094-24-24-24s-24 10.746094-24 24v24h-80v56h24c13.253906 0 24 10.746094 24 24s-10.746094 24-24 24h-24v72h80v24c0 13.253906 10.746094 24 24 24s24-10.746094 24-24v-24h64v-72h24c13.253906 0 24-10.746094 24-24s-10.746094-24-24-24zm0 0" fill="#a8d6da"/><path d="m408 87.070312v-11.070312c0-33.136719-26.863281-60-60-60s-60 26.863281-60 60v104c0 33.136719 26.863281 60 60 60s60-26.863281 60-60v-12.929688c22.089844 0 40-17.90625 40-40 0-22.089843-17.910156-40-40-40zm0 0" fill="#ea9d2d"/><path d="m96 120h16v72h-16zm0 0" fill="#6fbbc6"/><path d="m416 127.070312c0 8.839844-7.164062 16-16 16s-16-7.160156-16-16c0-8.835937 7.164062-16 16-16s16 7.164063 16 16zm0 0" fill="#da922a"/><path d="m136 144h32v40h-32zm0 0" fill="#ea9d2d"/><path d="m352 216c-22.082031-.027344-39.972656-17.917969-40-40v-8h16v8c0 13.253906 10.746094 24 24 24s24-10.746094 24-24v-8h16v8c-.027344 22.082031-17.917969 39.972656-40 40zm0 0" fill="#da922a"/><path d="m392 88h-16v-8c0-13.253906-10.746094-24-24-24s-24 10.746094-24 24v8h-16v-8c0-22.089844 17.910156-40 40-40s40 17.910156 40 40zm0 0" fill="#da922a"/><path d="m128 128c0 13.253906-10.746094 24-24 24s-24-10.746094-24-24 10.746094-24 24-24 24 10.746094 24 24zm0 0" fill="#6fbbc6"/><path d="m104 104h192v48h-192zm0 0" fill="#ea9d2d"/><path d="m104 104h8v48h-8zm0 0" fill="#da922a"/></svg>