<svg id="Layer_1" data-name="Layer 1" xmlns="http://www.w3.org/2000/svg" viewBox="0 0 312 87"><defs><style>.cls-1{fill:#ff4d21;}</style></defs><title>DocuSite Brand</title><path d="M98,60.39V23.57h14.43c5.18,0,9.24,1.77,12.18,5.24S129,36.67,129,42.06s-1.5,9.78-4.44,13.2-7,5.13-12.18,5.13Zm7.8-29.71v22.6h6.63a7.54,7.54,0,0,0,6.52-3.2,13.3,13.3,0,0,0,2.3-8,13.61,13.61,0,0,0-2.3-8.12,7.47,7.47,0,0,0-6.52-3.26Z"/><path d="M146,60.82a12.76,12.76,0,0,1-9.19-3.58,12.46,12.46,0,0,1-3.74-9.41,12.34,12.34,0,0,1,3.74-9.35,13.6,13.6,0,0,1,18.39,0A12.38,12.38,0,0,1,159,47.83a12.5,12.5,0,0,1-3.79,9.41A12.79,12.79,0,0,1,146,60.82Zm5.67-13a5.64,5.64,0,1,0-11.28,0,5.64,5.64,0,1,0,11.28,0Z"/><path d="M187.26,40.19l-6,4.33A5.36,5.36,0,0,0,176.41,42a6.16,6.16,0,0,0-4.33,1.66,5.25,5.25,0,0,0-1.87,4.16,5.61,5.61,0,0,0,1.87,4.33,6.2,6.2,0,0,0,4.33,1.66,5.38,5.38,0,0,0,4.81-2.51l6,4.27a13,13,0,0,1-10.85,5.35,13.65,13.65,0,0,1-9.56-3.69,12.22,12.22,0,0,1-4-9.41,11.89,11.89,0,0,1,4-9.29,13.83,13.83,0,0,1,9.56-3.64A13.15,13.15,0,0,1,187.26,40.19Z"/><path d="M208.48,35.44h7.42v25h-7.42V57a7.63,7.63,0,0,1-6.47,4c-5.82,0-9.88-3.74-9.88-10.58V35.44h7.42v13.3c0,3.58,2.25,5,4.44,5,2.56,0,4.49-1.6,4.49-5.07Z"/><path d="M229.21,49.6c.16,2.51,2.14,4.43,5.51,4.43,3.2,0,5.34-1.55,5.39-3.9.06-1.87-1-3.15-4.43-4.17l-4.44-1.23c-6.36-2-9.51-5.5-9.51-10.58a9.83,9.83,0,0,1,3.64-7.9,13.3,13.3,0,0,1,9-3.1,13,13,0,0,1,8.92,3,10.3,10.3,0,0,1,3.53,8.23H239c0-2.51-1.71-4.17-4.75-4.17-2.78,0-4.76,1.55-4.76,3.69,0,1.76,1.34,3,4,3.74l4.38,1.39c6.89,2,10.26,5.72,10.1,11.12a9.91,9.91,0,0,1-2,6c-2.62,3.37-6.68,4.76-11.22,4.76A14.47,14.47,0,0,1,225,57.83a10.42,10.42,0,0,1-3.68-8.23Z"/><path d="M261.49,26.19A4.47,4.47,0,0,1,257,30.57a4.53,4.53,0,0,1-4.65-4.38A4.49,4.49,0,0,1,257,21.86,4.43,4.43,0,0,1,261.49,26.19Zm-.85,9.25v25h-7.38v-25Z"/><path d="M277.2,35.44h5.24v5.87H277.2V60.39h-7.37V41.31h-4.54V35.44h4.54V25.87h7.37Z"/><path d="M309.53,55.85c-2.29,3.37-6.09,5.08-11.38,5.08a13,13,0,0,1-9.3-3.64,12.65,12.65,0,0,1-3.74-9.46,12.34,12.34,0,0,1,3.74-9.35,12.94,12.94,0,0,1,9.3-3.58,12.21,12.21,0,0,1,9.09,3.69,12.66,12.66,0,0,1,3.68,9.46c0,.69-.05,1.44-.1,2.3H292.54c.37,2.72,3.21,4.16,6.15,4.16a6.56,6.56,0,0,0,5.45-2.35ZM303.44,45.7c-.75-5.67-9.62-5.72-10.79,0Z"/><path class="cls-1" d="M61.82,10.92a35.49,35.49,0,0,0-30.2-10L51.74,21a21.45,21.45,0,1,1-24.31-4.16L17,6.39a34.75,34.75,0,0,0-5.54,4.53,35.61,35.61,0,0,0,0,50.38L36.63,86.5,61.82,61.3A35.63,35.63,0,0,0,61.82,10.92Z"/><circle class="cls-1" cx="36.63" cy="36.11" r="7.13"/></svg>