<?xml version="1.0" encoding="utf-8"?>
<!-- Generator: Adobe Illustrator 22.0.1, SVG Export Plug-In . SVG Version: 6.00 Build 0)  -->
<svg version="1.1" id="Capa_1" xmlns="http://www.w3.org/2000/svg" xmlns:xlink="http://www.w3.org/1999/xlink" x="0px" y="0px"
	 viewBox="0 0 5289 1420.9" style="enable-background:new 0 0 5289 1420.9;" xml:space="preserve">
<style type="text/css">
	.st0{fill:#E69F73;}
	.st1{fill:#79B4C0;}
</style>
<g>
	<g>
		<path class="st0" d="M1659.3,644.8v115.1h-214.8v174.5h277.1v120h-440.2V354.6h440.2v123.9h-277.1v166.3H1659.3z"/>
	</g>
	<g>
		<path class="st0" d="M2590.8,354.6v699.8h-93.5c-14.1,0-27.3-6.5-36-17.5l-335.8-427.2v444.7h-141.3V354.6h90
			c14,0,27.2,6.4,35.9,17.3l342.7,431.3V354.6H2590.8z"/>
	</g>
	<g>
		<path class="st0" d="M2823.6,478.5V354.6h550.2v123.9h-191.2v575.9h-165.1V478.5H2823.6z"/>
	</g>
	<g>
		<path class="st0" d="M3608.9,354.6h253.5c113,0,249.1,47.5,249.1,229.5c0,59.4-39,135.6-136.8,176.4c2.9,2.5,14.4,7.9,27.2,22.4
			c48.9,55,134.3,208.3,160.2,254c0,0,11.2,17.6,11.2,17.6l0,0h-154.1c-16.2,0-31.3-8.6-39.5-22.6l-139-236.6h-74.1v259.2h-157.9
			V354.6z M3854.1,477.7h-87.3v205.5h87.3c76.4,0,101.3-55.6,102.7-99C3958.4,538.1,3935.2,477.7,3854.1,477.7z"/>
	</g>
	<g>
		<path class="st0" d="M4782.4,354.6l270.8,699.8H4925c-19.5,0-36.9-12.4-43.3-30.8l-43.5-125.9h-266.3l-43.5,125.9
			c-6.4,18.5-23.8,30.8-43.3,30.8h-129.6l266.2-699.8H4782.4z M4705,512.7l-95.6,278.1h190.1L4705,512.7z"/>
	</g>
</g>
<g>
	<path class="st1" d="M252.2,822.1L149.2,719.1l458.5-458.5l102.9,102.9L252.2,822.1z M170.2,719.1l81.9,81.9l437.5-437.5
		l-81.9-81.9L170.2,719.1z"/>
</g>
<g>
	<path class="st1" d="M430.6,1000.5L327.6,897.5L786.1,439L889.1,542L430.6,1000.5z M348.6,897.5l81.9,81.9L868,542L786.1,460
		L348.6,897.5z"/>
</g>
<g>
	<path class="st1" d="M609,1178.9L506,1075.9l458.5-458.5l102.9,102.9L609,1178.9z M527,1075.9l81.9,81.9l437.5-437.5l-81.9-81.9
		L527,1075.9z"/>
</g>
</svg>
