<svg height="467pt" viewBox="-52 0 467 467.31276" width="467pt" xmlns="http://www.w3.org/2000/svg"><g fill="#69b0bb"><path d="m.15625 67.3125 11.3125-11.316406 59.3125 59.3125-11.3125 11.3125zm0 0"/><path d="m8.15625 11.3125 11.3125-11.3125 83.316406 83.3125-11.316406 11.316406zm0 0"/><path d="m39.472656 170.976562-39.3125-39.664062 11.3125-11.3125 35.3125 35.3125zm0 0"/></g><path d="m235.472656 403.3125v64h-136v-96l-24.59375-27.328125c-30.515625-33.910156-47.40625-77.914063-47.40625-123.535156-.007812-88.992188 72.128906-161.136719 161.121094-161.136719h6.878906c70.691406 0 128 57.308594 128 128v24l40 80-40 16v112h-64zm0 0" fill="#b3e4e8"/><path d="m227.113281 286.214844-7.640625 5.097656h-80l-8.457031-5.601562c-24.96875-16.644532-40.929687-43.820313-43.304687-73.734376l-.132813-1.710937c-3.085937-26.140625 5.152344-52.351563 22.640625-72.027344 17.488281-19.671875 42.554688-30.925781 68.878906-30.925781 26.429688 0 51.585938 11.351562 69.078125 31.164062 17.492188 19.816407 25.632813 46.1875 22.351563 72.414063-1.921875 30.507813-17.980469 58.371094-43.414063 75.324219zm0 0" fill="#f7ba61"/><path d="m139.472656 291.3125h80v40h-80zm0 0" fill="#dbdbdb"/><path d="m139.472656 323.3125h80v8c0 17.671875-14.328125 32-32 32h-16c-17.671875 0-32-14.328125-32-32zm0 0" fill="#cbcbcb"/><path d="m248.128906 267.046875c3.441406-4.085937 6.539063-8.445313 9.269532-13.039063-1.332032-1.535156-3.203126-2.5-5.230469-2.695312l-6.398438-.558594c-11.492187-.800781-22.675781-4.050781-32.800781-9.539062-4.21875-2.378906-8.277344-5.027344-12.160156-7.925782l-9.160156-6.871093 10.855468-10.855469c8.738282-8.761719 11.34375-21.921875 6.605469-33.351562-4.738281-11.429688-15.886719-18.886719-28.261719-18.898438h-2.75c-12.390625 0-23.558594 7.460938-28.296875 18.90625-4.742187 11.441406-2.121093 24.617188 6.640625 33.375l11.558594 11.558594c-7.695312 6.785156-16.296875 12.46875-25.558594 16.886718-10.96875 5.007813-22.917968 7.492188-34.96875 7.273438-2.421875.027344-4.695312 1.167969-6.160156 3.097656 2.722656 4.492188 5.808594 8.757813 9.222656 12.75 13.394532-.121094 26.613282-3.066406 38.792969-8.648437 11.222656-5.359375 21.59375-12.339844 30.785156-20.71875l11.101563 8.335937c4.433594 3.3125 9.078125 6.335938 13.898437 9.054688 12.101563 6.609375 25.484375 10.542968 39.238281 11.539062zm-56.9375-62.765625-11.71875 11.71875-11.71875-11.71875c-4.179687-4.1875-5.425781-10.472656-3.164062-15.9375 2.265625-5.460938 7.59375-9.027344 13.507812-9.03125h2.75c5.914063.003906 11.242188 3.570312 13.503906 9.03125 2.265626 5.464844 1.019532 11.75-3.160156 15.9375zm0 0" fill="#fd9226"/><path d="m205.8125 384.976562 11.3125-11.316406 24.003906 24.003906-11.3125 11.3125zm0 0" fill="#69b0bb"/></svg>