<svg height="456pt" viewBox="-27 0 455 456" width="456pt" xmlns="http://www.w3.org/2000/svg"><path d="m192.5 392h-128l-7.839844-34.398438c-2.597656-11.367187-8.335937-21.773437-16.558594-30.035156-25.347656-25.34375-39.59375-59.71875-39.601562-95.566406 0-70.691406 57.308594-128 128-128s128 57.308594 128 128c0 35.855469-14.246094 70.246094-39.601562 95.601562-8.21875 8.25-13.957032 18.644532-16.558594 30zm0 0" fill="#fbd699"/><path d="m176.5 256c0-2.933594-.269531-5.863281-.800781-8.753906l23.199219-13.390625-16-27.710938-23.199219 13.390625c-4.488281-3.808594-9.640625-6.761718-15.199219-8.710937v-26.824219h-32v26.792969c-5.507812 1.988281-10.601562 4.96875-15.03125 8.800781l-23.320312-13.464844-16 27.710938 23.199218 13.40625c-.550781 2.886718-.835937 5.816406-.847656 8.753906 0 2.933594.269531 5.863281.800781 8.753906l-23.199219 13.390625 16 27.710938 23.199219-13.390625c2.222657 1.898437 4.621094 3.585937 7.160157 5.039062 2.550781 1.457032 5.230468 2.6875 8 3.671875v26.824219h32v-26.824219c5.570312-1.945312 10.734374-4.898437 15.238281-8.710937l23.199219 13.390625 16-27.710938-23.199219-13.390625c.53125-2.890625.800781-5.820312.800781-8.753906zm-48 16c-8.835938 0-16-7.164062-16-16s7.164062-16 16-16 16 7.164062 16 16-7.164062 16-16 16zm0 0" fill="#b9b9b9"/><path d="m64.5 392h128v40h-128zm0 0" fill="#6cbae5"/><path d="m64.5 409.585938h128v11.503906h-128zm0 0" fill="#4799cf"/><path d="m168.5 456h-80c-13.253906 0-24-10.746094-24-24v-8h128v8c0 13.253906-10.746094 24-24 24zm0 0" fill="#6cbae5"/><path d="m120.5 328h16v64h-16zm0 0" fill="#f7ba61"/><path d="m288.5 256h-32c-4.417969 0-8-3.582031-8-8s3.582031-8 8-8h24v-48c0-4.417969 3.582031-8 8-8s8 3.582031 8 8v56c0 4.417969-3.582031 8-8 8zm0 0" fill="#b9b9b9"/><path d="m288.5 72c-4.417969 0-8-3.582031-8-8v-48c0-4.417969 3.582031-8 8-8h48c4.417969 0 8 3.582031 8 8s-3.582031 8-8 8h-40v40c0 4.417969-3.582031 8-8 8zm0 0" fill="#b9b9b9"/><path d="m384.5 184c-4.417969 0-8-3.582031-8-8v-36h-40c-4.417969 0-8-3.582031-8-8s3.582031-8 8-8h48c4.417969 0 8 3.582031 8 8v44c0 4.417969-3.582031 8-8 8zm0 0" fill="#b9b9b9"/><path d="m208.5 96h-32c-4.417969 0-8-3.582031-8-8v-56c0-4.417969 3.582031-8 8-8s8 3.582031 8 8v48h24c4.417969 0 8 3.582031 8 8s-3.582031 8-8 8zm0 0" fill="#b9b9b9"/><g fill="#6e9735"><path d="m324.5 0h32v32h-32zm0 0"/><path d="m400.5 168v32h-32v-32zm0 0"/><path d="m256.5 232v32h-32v-32zm0 0"/><path d="m160.5 0h32v32h-32zm0 0"/><path d="m208.5 64h128v128h-128zm0 0"/></g><path d="m240.5 96h64v64h-64zm0 0" fill="#79a73a"/><path d="m264.5 120h16v16h-16zm0 0" fill="#6e9735"/></svg>