<?xml version="1.0" encoding="utf-8"?>
<!-- Generator: Adobe Illustrator 24.0.1, SVG Export Plug-In . SVG Version: 6.00 Build 0)  -->
<svg version="1.1" id="Layer_1" xmlns="http://www.w3.org/2000/svg" xmlns:xlink="http://www.w3.org/1999/xlink" x="0px" y="0px"
	 viewBox="0 0 432.59 488.41" style="enable-background:new 0 0 432.59 488.41;" xml:space="preserve">
<g>
	<path d="M360.62,164.08c-10.48,5.54-19.08,18.7-19.08,29.55v227.39c12.85-7.35,25.69-14.7,38.54-22.06V173.25
		C380.08,162.4,371.47,158.35,360.62,164.08z"/>
	<path d="M298.51,196.93c-10.85,5.74-19.46,18.9-19.46,29.75v229.99c12.84-7.33,25.69-14.66,38.54-21.98V206.3
		C317.59,195.44,308.99,191.39,298.51,196.93z"/>
	<path d="M431.7,141.13c-0.05-15.01-6.77-25.92-19.35-33.39c-10.52-6.24-21.27-12.09-31.9-18.13
		c-21.35-12.14-42.71-24.25-64.07-36.38L107.52,173.2l-0.02-0.01l0.02,0.01v184.32c0,23.57-19.08,33.04-43.03,20.5
		c-23.57-12.34-43.03-41.99-43.03-65.56v-13.84c0-3.37,2.62-4.61,5.99-2.85l11.97,6.27c3.37,1.76,5.99,5.75,5.99,9.12v13.84
		c0,10.48,8.61,23.59,19.08,29.07c10.48,5.48,19.08,1.38,19.08-9.09V161.34l-0.17-0.08L293.83,40.4
		c-20.67-11.77-41.32-23.57-61.92-35.46c-12.08-6.98-23.13-6.28-34.57,0.37C137.28,40.24,77.23,75.2,17.15,110.11
		c-11.29,6.56-17.1,15.66-16.93,29.28c0.46,34.88,0.15,69.77,0.15,104.65c-0.07,0-0.14,0-0.21,0c0,34.88,0.32,69.77-0.16,104.65
		c-0.19,13.6,5.43,22.47,16.91,29.14c60.08,34.91,120.03,70.05,179.97,105.21c12.14,7.12,23.82,7.2,36.12,0.08
		c7.36-4.26,14.73-8.5,22.1-12.74V239.34c0-23.95,15.28-51.28,39.23-63.95c11.97-6.33,27.37-9.44,35.23-5.36
		c7.86-12.39,19.08-23.56,31.06-29.89c23.95-12.66,43.4-3.5,43.4,20.45v224.68c3.76-2.14,7.51-4.3,11.26-6.44
		c10.8-6.15,17.33-15.27,17.3-27.7C432.46,281.13,431.94,211.13,431.7,141.13z M215.69,266.2c0,3.37-2.62,4.62-5.99,2.85
		l-11.97-6.27c-3.37-1.76-5.99-5.75-5.99-9.12v-12.72c0-10.48-8.61-23.59-19.08-29.07c-10.48-5.49-19.08-1.38-19.08,9.09v162.76
		c0,10.48,8.61,23.59,19.08,29.07c10.48,5.49,19.08,1.39,19.08-9.09v-69.97l-13.1-6.86c-3.37-1.76-5.99-5.75-5.99-9.12v-11.97
		c0-3.37,2.62-4.61,5.99-2.85l31.06,16.26c3.37,1.76,5.99,5.75,5.99,9.12v87.93c0,23.57-19.46,32.84-43.03,20.5
		c-23.57-12.34-43.03-41.98-43.03-65.56V208.42c0-23.57,19.46-32.84,43.03-20.5c23.57,12.34,43.03,41.99,43.03,65.56V266.2z"/>
</g>
</svg>
