<?xml version="1.0" encoding="iso-8859-1"?>
<!-- Generator: Adobe Illustrator 19.0.0, SVG Export Plug-In . SVG Version: 6.00 Build 0)  -->
<svg version="1.1" id="Capa_1" xmlns="http://www.w3.org/2000/svg" xmlns:xlink="http://www.w3.org/1999/xlink" x="0px" y="0px"
	 viewBox="0 0 448 448" style="enable-background:new 0 0 448 448;" xml:space="preserve">
<path style="fill:#787D82;" d="M8,446.107c-4.418,0-8-3.582-8-8v-40c0-4.418,3.582-8,8-8s8,3.582,8,8v40
	C16,442.525,12.418,446.107,8,446.107z"/>
<path style="fill:#DC4D41;" d="M120,406.107H8c-4.418,0-8-3.582-8-8v-128c0-17.673,14.327-32,32-32h8c4.418,0,8,3.582,8,8v88
	c0,13.255,10.745,24,24,24h48c4.418,0,8,3.582,8,8v32C128,402.525,124.418,406.107,120,406.107z"/>
<path style="fill:#787D82;" d="M440,446.107c-4.418,0-8-3.582-8-8v-40c0-4.418,3.582-8,8-8s8,3.582,8,8v40
	C448,442.525,444.418,446.107,440,446.107z"/>
<path style="fill:#DC4D41;" d="M440,406.107H328c-4.418,0-8-3.582-8-8v-32c0-4.418,3.582-8,8-8h48c13.255,0,24-10.745,24-24v-88
	c0-4.418,3.582-8,8-8h8c17.673,0,32,14.327,32,32v128C448,402.525,444.418,406.107,440,406.107z"/>
<path style="fill:#8DC79D;" d="M312,446.107h-16c-4.418,0-8-3.582-8-8v-80c0-17.673,14.327-32,32-32h24v-48h-32
	c-4.418,0-8-3.582-8-8v-16c0-13.255,10.745-24,24-24h8.752c2.566-16.234,12.804-30.234,27.496-37.6
	c12.674-5.216,27.264-1.698,36.168,8.72c10.126,10.27,15.735,24.155,15.584,38.576v94.304c-0.026,22.08-17.92,39.974-40,40h-40v48
	C336,435.362,325.255,446.107,312,446.107z"/>
<g>
	<path style="fill:#4799CF;" d="M224,206.107c30.928,0,56,25.072,56,56v8l0,0H168l0,0v-8C168,231.179,193.072,206.107,224,206.107z"
		/>
	<path style="fill:#4799CF;" d="M224,206.107c-17.673,0-32-14.327-32-32v-16c0-17.673,14.327-32,32-32s32,14.327,32,32v16
		C256,191.78,241.673,206.107,224,206.107z"/>
</g>
<g>
	<path style="fill:#8DC79D;" d="M72,198.107c-17.673,0-32-14.327-32-32v-16c0-17.673,14.327-32,32-32s32,14.327,32,32v16
		C104,183.78,89.673,198.107,72,198.107z"/>
	<path style="fill:#8DC79D;" d="M376,198.107c-17.673,0-32-14.327-32-32v-16c0-17.673,14.327-32,32-32s32,14.327,32,32v16
		C408,183.78,393.673,198.107,376,198.107z"/>
</g>
<g>
	<path style="fill:#F3AF3E;" d="M240,78.363h-32l-13.4-43.2c-1.557-12.451,4.906-24.53,16.128-30.144
		c8.335-4.168,18.145-4.168,26.48,0c11.222,5.614,17.685,17.693,16.128,30.144L240,78.363z"/>
	<path style="fill:#F3AF3E;" d="M240,110.363h-32c-4.418,0-8-3.582-8-8s3.582-8,8-8h32c4.418,0,8,3.582,8,8
		S244.418,110.363,240,110.363z"/>
</g>
<g>
	<path style="fill:#B3E4E8;" d="M72,86.107h16v16H72V86.107z"/>
	<path style="fill:#B3E4E8;" d="M72,54.107h16v16H72V54.107z"/>
	<path style="fill:#B3E4E8;" d="M104,54.107h16v16h-16V54.107z"/>
	<path style="fill:#B3E4E8;" d="M136,54.107h16v16h-16V54.107z"/>
	<path style="fill:#B3E4E8;" d="M360,86.107h16v16h-16V86.107z"/>
	<path style="fill:#B3E4E8;" d="M360,54.107h16v16h-16V54.107z"/>
	<path style="fill:#B3E4E8;" d="M328,54.107h16v16h-16V54.107z"/>
	<path style="fill:#B3E4E8;" d="M296,54.107h16v16h-16V54.107z"/>
</g>
<path style="fill:#4799CF;" d="M256,334.107h-64c-13.255,0-24-10.745-24-24v-8h112v8C280,323.362,269.255,334.107,256,334.107z"/>
<path style="fill:#8DC79D;" d="M152,446.107h-16c-13.255,0-24-10.745-24-24v-48H72c-22.08-0.026-39.974-17.92-40-40v-94.304
	c-0.145-14.413,5.464-28.288,15.584-38.552c8.911-10.407,23.493-13.923,36.168-8.72c14.686,7.361,24.923,21.351,27.496,37.576H120
	c13.255,0,24,10.745,24,24v16c0,4.418-3.582,8-8,8h-32v48h24c17.673,0,32,14.327,32,32v80C160,442.525,156.418,446.107,152,446.107
	L152,446.107z"/>
<g>
	<path style="fill:#4799CF;" d="M280,278.107H168c-4.418,0-8-3.582-8-8v-8c0-35.346,28.654-64,64-64s64,28.654,64,64v8
		C288,274.525,284.418,278.107,280,278.107z"/>
	<path style="fill:#4799CF;" d="M256,342.107h-64c-17.673,0-32-14.327-32-32v-8c0-4.418,3.582-8,8-8h112c4.418,0,8,3.582,8,8v8
		C288,327.78,273.673,342.107,256,342.107z"/>
</g>
<path style="fill:#5B3726;" d="M192,270.107h64v168h-64V270.107z"/>
<path style="fill:#8F563B;" d="M104,270.107h240v32H104V270.107z"/>
<g>
</g>
<g>
</g>
<g>
</g>
<g>
</g>
<g>
</g>
<g>
</g>
<g>
</g>
<g>
</g>
<g>
</g>
<g>
</g>
<g>
</g>
<g>
</g>
<g>
</g>
<g>
</g>
<g>
</g>
</svg>
