<svg height="512" viewBox="0 0 512 512" width="512" xmlns="http://www.w3.org/2000/svg"><g id="flat"><path d="m472 408h-168l-16 8h-64l-16-8h-168v-310a10 10 0 0 1 10-10h412a10 10 0 0 1 10 10z" fill="#cdcdcd"/><path d="m72 120h368v328h-368z" fill="#3bd6d0"/><path d="m104 168h304v192h-304z" fill="#c0f5f9"/><g fill="#4799cf"><path d="m104 168h304v32h-304z"/><path d="m217.181 268h93.638v16h-93.638z" transform="matrix(.342 -.94 .94 .342 -85.601 429.79)"/><path d="m210.343 325.657-48-48a8 8 0 0 1 .536-11.8l48-40 10.242 12.292-41.269 34.392 41.805 41.805z"/><path d="m309.657 325.657-11.314-11.314 41.805-41.805-41.269-34.392 10.242-12.292 48 40a8 8 0 0 1 .536 11.8z"/></g><path d="m40 400h432v24h-432z" fill="#c3c3c3"/><path d="m72 400h368v24h-368z" fill="#37c9c3"/><path d="m472 448h-432a16 16 0 0 1 -16-16v-24h184l16 8h64l16-8h184v24a16 16 0 0 1 -16 16z" fill="#b9b9b9"/><path d="m104 352h304v8h-304z" fill="#b8eaee"/></g></svg>