<svg height="464pt" viewBox="-56 0 464 464" width="464pt" xmlns="http://www.w3.org/2000/svg"><path d="m336 216h-56v-56c0-4.417969-3.582031-8-8-8h-120v16h112v48h-48c-4.417969 0-8 3.582031-8 8v24h16v-16h104v16h16v-24c0-4.417969-3.582031-8-8-8zm0 0" fill="#aae5c8"/><path d="m272 360h-48v-32h-16v40c0 4.417969 3.582031 8 8 8h48v32h16v-40c0-4.417969-3.582031-8-8-8zm0 0" fill="#aae5c8"/><path d="m53.761719 366.398438c73.046875-11.011719 125.910156-75.515626 122.363281-149.304688s-62.355469-132.921875-136.125-136.878906v-24.214844h-16v32c0 4.417969 3.582031 8 8 8 66.96875-.058594 122.664062 51.515625 127.742188 118.292969 5.078124 66.777343-42.175782 126.179687-108.382813 136.25-15.71875 2.253906-27.386719 15.734375-27.359375 31.617187v2.886719l-11.558594-7.703125c-3.675781-2.453125-8.644531-1.460938-11.097656 2.214844-2.449219 3.675781-1.457031 8.644531 2.21875 11.097656l24 16c2.6875 1.792969 6.191406 1.792969 8.878906 0l24-16c3.675782-2.453125 4.667969-7.421875 2.214844-11.097656-2.453125-3.675782-7.417969-4.667969-11.09375-2.214844l-11.5625 7.703125v-2.886719c.042969-7.941406 5.898438-14.648437 13.761719-15.761718zm0 0" fill="#f7ba61"/><path d="m16 432h32v32h-32zm0 0" fill="#ffb1b5"/><path d="m256 432h32v32h-32zm0 0" fill="#ffb1b5"/><path d="m200 272h32v32h-32zm0 0" fill="#69b0bb"/><path d="m320 272h32v32h-32zm0 0" fill="#fd9226"/><path d="m328 328h16v16h-16zm0 0" fill="#c0f5f9"/><g fill="#fd9226"><path d="m24 112h16v16h-16zm0 0"/><path d="m24 144h16v16h-16zm0 0"/><path d="m24 176h16v16h-16zm0 0"/><path d="m24 288h16v16h-16zm0 0"/><path d="m24 320h16v16h-16zm0 0"/></g><path d="m328 360h16v16h-16zm0 0" fill="#c0f5f9"/><path d="m296 360h16v16h-16zm0 0" fill="#c0f5f9"/><path d="m56 240c0 13.253906-10.746094 24-24 24s-24-10.746094-24-24 10.746094-24 24-24 24 10.746094 24 24zm0 0" fill="#69b0bb"/><path d="m64 32c0 17.671875-14.324219 32-32 32-17.671875 0-32-14.328125-32-32s14.328125-32 32-32c17.675781 0 32 14.328125 32 32zm0 0" fill="#fbd699"/></svg>